<svg width="16" height="16" viewBox="0 0 16 16" fill="none" xmlns="http://www.w3.org/2000/svg">
<path fill-rule="evenodd" clip-rule="evenodd" d="M12.4 1.86667C11.9555 1.92274 11.535 2.10011 11.1847 2.37933C11.0687 2.47267 10.5413 2.914 10.0127 3.36067C9.48467 3.808 9.03333 4.188 9.01067 4.206C8.97667 4.23267 8.526 4.118 6.52667 3.57267C4.74867 3.088 4.046 2.90667 3.94267 2.90667C3.686 2.90733 3.59 2.976 2.984 3.59C2.54133 4.03867 2.42533 4.17133 2.38667 4.27333C2.29133 4.52733 2.386 4.868 2.594 5.02133C2.64133 5.05667 3.47533 5.526 4.44667 6.06467C5.41867 6.60333 6.21333 7.04933 6.21333 7.056C6.21333 7.06867 4.63933 8.96 4.62867 8.96C4.62467 8.96 4.444 8.924 4.22667 8.88C4.00933 8.836 3.77067 8.8 3.696 8.80067C3.448 8.80133 3.37133 8.85867 2.66333 9.564C1.926 10.2987 1.882 10.36 1.884 10.64C1.886 10.848 1.94867 10.988 2.09933 11.122C2.15867 11.1747 2.56933 11.3947 3.064 11.64L3.92533 12.0667L4.36533 12.9467C4.61667 13.45 4.84133 13.8647 4.88933 13.916C5.084 14.122 5.39933 14.18 5.65533 14.0573C5.82733 13.9747 7.06933 12.7253 7.14467 12.5593C7.21867 12.3953 7.214 12.2373 7.12 11.7733C7.076 11.556 7.04 11.3753 7.04 11.3713C7.04 11.3413 8.94333 9.78667 8.95933 9.804C8.97067 9.81667 9.42533 10.6307 9.97 11.6133C10.6913 12.9147 10.986 13.4233 11.056 13.4853C11.236 13.6447 11.48 13.69 11.722 13.6093C11.8347 13.572 11.9333 13.486 12.41 13.016C13.024 12.4093 13.0927 12.314 13.0933 12.0573C13.0933 11.954 12.9147 11.26 12.4387 9.51067L11.7713 7.06467C11.764 7.038 12.0893 6.63267 12.6687 5.94867C13.7033 4.72533 13.7787 4.62933 13.9207 4.33467C14.1193 3.92333 14.1967 3.34 14.1107 2.894C14.0669 2.66065 13.958 2.44445 13.7964 2.27043C13.6349 2.09641 13.4274 1.97168 13.198 1.91067C13.0067 1.86133 12.616 1.83933 12.4 1.86667ZM12.8213 3.31467C12.8313 3.472 12.766 3.71133 12.6733 3.85333C12.6353 3.912 12.1293 4.52133 11.5487 5.20667C10.968 5.89267 10.4667 6.50467 10.434 6.56667C10.3147 6.79467 10.314 6.79067 11.0287 9.41267C11.3893 10.7347 11.6767 11.836 11.668 11.86C11.6567 11.8887 11.3193 11.3053 10.676 10.1447C10.1393 9.178 9.66267 8.34667 9.61667 8.29733C9.47933 8.15133 9.346 8.09533 9.13333 8.094C8.978 8.09333 8.92667 8.10533 8.82667 8.16467C8.76067 8.204 8.05067 8.78333 7.24867 9.45133C5.93933 10.544 5.784 10.6813 5.722 10.8053C5.63133 10.988 5.63333 11.114 5.73733 11.6347L5.82133 12.0567L5.692 12.188C5.6482 12.2369 5.5995 12.2811 5.54667 12.32C5.538 12.32 5.406 12.0673 5.25333 11.7587C5.07333 11.3953 4.942 11.1647 4.88133 11.1033C4.822 11.044 4.58267 10.9067 4.23 10.7287L3.67267 10.448L3.80733 10.3133L3.94267 10.178L4.36467 10.2627C4.88333 10.366 5.012 10.3687 5.19067 10.2793C5.31067 10.22 5.464 10.0467 6.56267 8.72867C7.24333 7.91267 7.824 7.202 7.85267 7.14933C7.89067 7.07933 7.90533 7.002 7.90533 6.86667C7.90533 6.654 7.85 6.52267 7.70267 6.382C7.65333 6.33533 6.82267 5.85867 5.856 5.32267C4.71333 4.68933 4.11267 4.34267 4.14067 4.332C4.164 4.32267 5.26533 4.61067 6.58733 4.97133C9.20867 5.686 9.20467 5.68533 9.43133 5.56533C9.49267 5.53333 10.1027 5.03267 10.7873 4.45333C11.4713 3.874 12.084 3.366 12.148 3.324C12.2987 3.226 12.4827 3.176 12.6667 3.182L12.8133 3.18667L12.8213 3.31467Z" fill="#2C3037"/>
</svg>
