<svg width="24" height="24" viewBox="0 0 24 24" fill="none" xmlns="http://www.w3.org/2000/svg">
<g opacity="0.6">
<path fill-rule="evenodd" clip-rule="evenodd" d="M8.69987 2.57602C7.78987 2.80002 5.72687 4.04002 5.34687 4.59002C5.09787 4.95102 5.07287 5.06602 5.06187 5.89502C5.05187 6.70002 5.02487 6.86802 4.82287 7.36902C4.68261 7.71323 4.48139 8.02929 4.22887 8.30202C3.92587 8.63302 3.63087 8.85102 3.12787 9.11602C2.64587 9.36902 2.37187 9.63602 2.24487 9.97702C1.95287 10.756 1.95387 13.246 2.24587 14.027C2.36387 14.343 2.65387 14.637 3.04987 14.841C4.11487 15.391 4.66087 16.02 4.96487 17.047C5.03887 17.296 5.05287 17.455 5.06087 18.103C5.07087 18.931 5.09587 19.046 5.34887 19.412C5.66587 19.871 7.11087 20.798 8.23987 21.265C8.66987 21.443 8.72387 21.456 9.05987 21.458C9.47887 21.46 9.61687 21.414 10.0749 21.121C10.7639 20.679 11.2839 20.515 11.9999 20.515C12.7179 20.515 13.2749 20.693 13.9599 21.14C14.3989 21.427 14.4889 21.457 14.9199 21.457C15.2829 21.457 15.3209 21.448 15.7599 21.266C16.6252 20.9048 17.4394 20.4318 18.1819 19.859C18.5459 19.575 18.6799 19.417 18.8259 19.097C18.9229 18.887 18.9289 18.834 18.9379 18.108C18.9449 17.529 18.9639 17.281 19.0149 17.102C19.3109 16.067 19.8539 15.42 20.8789 14.881C21.3539 14.631 21.6289 14.362 21.7549 14.023C22.0439 13.251 22.0439 10.749 21.7549 9.97702C21.6279 9.63502 21.3489 9.36302 20.8809 9.12302C19.9019 8.62002 19.3489 7.98102 19.0539 7.01202C18.9549 6.68902 18.9449 6.59702 18.9369 5.89502C18.9269 5.06602 18.9019 4.95202 18.6529 4.59002C18.3489 4.15002 16.9249 3.22502 15.8739 2.78502C15.0199 2.42702 14.6139 2.43902 13.9999 2.84002C13.2929 3.30102 12.7179 3.48802 11.9999 3.48802C11.2819 3.48802 10.7069 3.30102 9.99987 2.84002C9.54787 2.54402 9.15387 2.46402 8.69987 2.57602ZM9.42087 4.82002C9.85687 5.06102 10.3179 5.24002 10.8399 5.37202C11.1329 5.44602 11.2929 5.45802 11.9999 5.45802C12.7069 5.45802 12.8669 5.44602 13.1599 5.37202C13.6549 5.2507 14.132 5.06513 14.5789 4.82002C14.7979 4.69902 14.9949 4.60002 15.0179 4.60002C15.0409 4.60102 15.2579 4.69702 15.4999 4.81402C15.9479 5.03102 16.3889 5.29602 16.7299 5.55302L16.9199 5.69602V5.99002C16.9199 7.97602 17.9019 9.70502 19.5939 10.696C19.9079 10.88 19.9169 10.89 19.9479 11.073C19.9659 11.176 19.9799 11.593 19.9799 12C19.9799 12.407 19.9659 12.824 19.9479 12.927C19.9169 13.11 19.9079 13.12 19.5939 13.304C18.6714 13.8307 17.93 14.6241 17.4669 15.58C17.1369 16.24 16.9729 16.919 16.9339 17.78C16.9069 18.378 16.9529 18.302 16.3799 18.688C16.0259 18.926 15.1129 19.399 15.0049 19.4C14.9749 19.4 14.8459 19.336 14.7169 19.258C13.0909 18.27 10.9089 18.27 9.28287 19.258C9.15387 19.336 9.02387 19.4 8.99187 19.4C8.87487 19.4 7.88587 18.877 7.49987 18.611L7.09987 18.335L7.07187 17.805C6.99887 16.422 6.59987 15.394 5.75087 14.4C5.38587 13.973 4.71187 13.443 4.24887 13.22C4.09287 13.145 4.08187 13.127 4.05187 12.92C4.00987 12.634 4.01087 11.315 4.05187 11.073C4.08287 10.89 4.09187 10.88 4.40587 10.696C5.77987 9.89102 6.68487 8.61902 6.97787 7.08002C7.01387 6.89302 7.05287 6.50602 7.06587 6.22002C7.09387 5.61802 7.04287 5.69702 7.65787 5.29102C8.02387 5.04902 8.88287 4.60102 8.98187 4.60002C9.00487 4.60002 9.20187 4.69902 9.42087 4.82002ZM11.3579 8.06102C10.7461 8.16342 10.1663 8.40626 9.66422 8.77045C9.16208 9.13465 8.75121 9.61029 8.46387 10.16C8.25532 10.5439 8.11778 10.9623 8.05787 11.395C7.98587 11.7951 7.98587 12.2049 8.05787 12.605C8.27987 14.074 9.32387 15.31 10.7549 15.797C11.0499 15.897 11.6799 16 11.9999 16C12.3199 16 12.9499 15.897 13.2449 15.797C14.2289 15.462 15.0759 14.739 15.5359 13.84C15.7444 13.4561 15.882 13.0378 15.9419 12.605C16.0139 12.2049 16.0139 11.7951 15.9419 11.395C15.8466 10.7756 15.6066 10.1874 15.2414 9.67817C14.8761 9.16891 14.396 8.75294 13.8399 8.46402C13.456 8.25548 13.0376 8.11794 12.6049 8.05802C12.192 7.989 11.7704 7.99002 11.3579 8.06102ZM12.4919 10.06C12.8519 10.153 13.1179 10.31 13.4039 10.596C13.6999 10.891 13.8519 11.157 13.9399 11.529C14.0528 12.0035 13.9929 12.5027 13.7709 12.937C13.6379 13.2 13.1959 13.64 12.9299 13.775C12.6419 13.9219 12.3232 13.9985 11.9999 13.9985C11.6766 13.9985 11.3579 13.9219 11.0699 13.775C10.8009 13.639 10.3609 13.199 10.2249 12.93C10.078 12.642 10.0014 12.3233 10.0014 12C10.0014 11.6767 10.078 11.358 10.2249 11.07C10.3619 10.8 10.8009 10.361 11.0709 10.225C11.5101 10.0036 12.0136 9.94511 12.4919 10.06Z" fill="#2C3037"/>
</g>
</svg>
