<svg width="48" height="48" viewBox="0 0 48 48" fill="none" xmlns="http://www.w3.org/2000/svg">
<path d="M8.47266 7.84155H11.2962V16.5474H8.47266V7.84155Z" fill="#C0C0C0"/>
<path d="M36.7065 7.84155H39.5301V16.5474H36.7065V7.84155Z" fill="#C0C0C0"/>
<path d="M40.4648 11.6054L35.7737 11.6054L35.7737 5.95094L12.2296 5.95094L12.2296 11.6054L7.53838 11.6054L7.53838 4.07456C7.53838 2.52003 8.79864 1.25977 10.3532 1.25977L37.65 1.25977C39.2046 1.25977 40.4648 2.52003 40.4648 4.07456L40.4648 11.6054Z" fill="#2C3037"/>
<path d="M4 18.1864C4 16.7614 5.15518 15.6062 6.58017 15.6062H41.4198C42.8448 15.6062 44 16.7614 44 18.1864V43.6143C44 45.0393 42.8448 46.1944 41.4198 46.1944H6.58017C5.15518 46.1944 4 45.0393 4 43.6143V18.1864Z" fill="#00CFD7"/>
<path d="M10.5903 19.1329C10.5903 18.7442 10.9054 18.4292 11.294 18.4292H17.4161C17.8047 18.4292 18.1197 18.7442 18.1197 19.1329V27.1373C18.1197 27.5259 17.8047 27.841 17.4161 27.841H11.294C10.9054 27.841 10.5903 27.5259 10.5903 27.1373V19.1329Z" fill="white"/>
<path d="M13.1768 15.6062H15.5297V18.4297H13.1768V15.6062Z" fill="white"/>
<path d="M34.1592 42.9005C32.9571 42.9005 31.991 42.6776 31.2608 42.2318C30.9531 42.0454 30.6276 41.7605 30.2844 41.377C30.1351 41.21 29.8451 41.3109 29.8451 41.535V42.3068C29.8451 42.4363 29.7401 42.5414 29.6105 42.5414H26.3532C26.2237 42.5414 26.1187 42.4363 26.1187 42.3068V24.5468C26.1187 24.4173 26.2237 24.3123 26.3532 24.3123H29.6773C29.8068 24.3123 29.9119 24.4173 29.9119 24.5468V30.1097C29.9119 30.3339 30.2055 30.4374 30.3598 30.2747C30.7164 29.8989 31.0969 29.5956 31.5013 29.3649C32.1869 28.9521 33.0595 28.7457 34.1191 28.7457C36.0335 28.7457 37.5294 29.3855 38.6068 30.6652C39.6931 31.9449 40.2363 33.5961 40.2363 35.6188C40.2363 37.7158 39.702 39.4536 38.6335 40.8324C37.565 42.2111 36.0736 42.9005 34.1592 42.9005ZM36.2428 35.9903C36.2428 35.0326 36.1092 34.24 35.8421 33.6126C35.3345 32.4237 34.3996 31.8293 33.0372 31.8293C31.6571 31.8293 30.7088 32.4113 30.1923 33.5754C29.9252 34.1946 29.7916 34.9954 29.7916 35.9779C29.7916 37.1337 30.0677 38.0914 30.6197 38.851C31.1718 39.6105 32.0132 39.9903 33.1441 39.9903C34.1236 39.9903 34.8849 39.6229 35.428 38.8881C35.9712 38.1533 36.2428 37.1874 36.2428 35.9903Z" fill="white"/>
</svg>
